<svg width="222" height="74" viewBox="0 0 222 74" fill="none" xmlns="http://www.w3.org/2000/svg">
<g clip-path="url(#clip0)">
<path d="M204.321 0.0002405H17.6887C17.0084 0.0002405 16.3362 0.0002405 15.6577 0.0039405C15.0898 0.0076405 14.5263 0.018389 13.9529 0.0274355C12.7072 0.0420538 11.4644 0.151342 10.2353 0.354349C9.00794 0.561776 7.81903 0.952835 6.70879 1.5143C5.5999 2.08051 4.58668 2.81625 3.70588 3.69482C2.82046 4.57092 2.08239 5.58357 1.52005 6.69384C0.956167 7.80189 0.565167 8.98928 0.360557 10.215C0.154001 11.4391 0.042852 12.6774 0.0281062 13.9187C0.01089 14.4859 0.0090719 15.055 0 15.6223V58.3836C0.0090719 58.9581 0.01089 59.5145 0.0281062 60.0892C0.0428565 61.3304 0.154006 62.5686 0.360557 63.7927C0.564602 65.0191 0.955625 66.2072 1.52005 67.3156C2.08213 68.4223 2.8203 69.4309 3.70588 70.3021C4.58334 71.1846 5.59722 71.9208 6.70879 72.4827C7.81902 73.0456 9.0078 73.439 10.2353 73.6497C11.4646 73.851 12.7073 73.9604 13.9529 73.9767C14.5263 73.9893 15.0898 73.9965 15.6577 73.9965C16.3362 74.0002 17.0084 74.0002 17.6887 74.0002H204.321C204.988 74.0002 205.666 74.0002 206.332 73.9965C206.898 73.9965 207.477 73.9893 208.043 73.9767C209.286 73.9613 210.526 73.8519 211.753 73.6497C212.984 73.4376 214.178 73.0443 215.293 72.4827C216.404 71.9205 217.417 71.1843 218.293 70.3021C219.177 69.4274 219.916 68.4196 220.485 67.3156C221.046 66.2064 221.433 65.0184 221.634 63.7927C221.841 62.5684 221.956 61.3305 221.978 60.0892C221.986 59.5145 221.986 58.9581 221.986 58.3836C222 57.7115 222 57.0431 222 56.3601V17.6421C222 16.9646 222 16.2925 221.986 15.6223C221.986 15.055 221.986 14.4859 221.978 13.9186C221.956 12.6772 221.841 11.4392 221.634 10.2149C221.432 8.98991 221.045 7.80262 220.485 6.69376C219.34 4.46835 217.524 2.65689 215.293 1.51413C214.178 0.95404 212.984 0.563085 211.753 0.354182C210.526 0.150281 209.286 0.0409549 208.043 0.0271765C207.477 0.0181485 206.898 0.0073075 206.332 0.0037C205.666 0 204.988 0 204.321 0V0.0002405Z" fill="black"/>
<path d="M15.667 72.3802C15.1018 72.3802 14.5502 72.373 13.9894 72.3604C12.8276 72.3453 11.6686 72.2444 10.5218 72.0586C9.4524 71.875 8.41649 71.5334 7.44818 71.045C6.48875 70.5607 5.61368 69.9257 4.85648 69.1643C4.08832 68.4119 3.44879 67.5392 2.96323 66.5808C2.47233 65.6162 2.13259 64.5822 1.95586 63.515C1.76501 62.3682 1.66175 61.2086 1.64697 60.0462C1.63521 59.6561 1.61981 58.357 1.61981 58.357V15.621C1.61981 15.621 1.63621 14.3418 1.64706 13.9661C1.66121 12.8055 1.76387 11.6477 1.95416 10.5027C2.13121 9.43254 2.47121 8.39561 2.96238 7.42784C3.44615 6.47012 4.08213 5.59677 4.84566 4.84163C5.60834 4.07933 6.48621 3.44104 7.44727 2.95006C8.41335 2.4633 9.44731 2.12408 10.5145 1.94378C11.6651 1.75612 12.8282 1.65467 13.9939 1.64026L15.6679 1.61768H206.323L208.017 1.64117C209.173 1.65486 210.325 1.75541 211.465 1.94196C212.543 2.12453 213.588 2.46611 214.565 2.95548C216.49 3.94495 218.057 5.51038 219.045 7.43236C219.529 8.39345 219.863 9.42191 220.038 10.4829C220.231 11.6373 220.339 12.8041 220.361 13.9742C220.366 14.4981 220.366 15.0609 220.366 15.621C220.381 16.3147 220.381 16.975 220.381 17.6408V56.3588C220.381 57.0309 220.381 57.6867 220.366 58.3479C220.366 58.9495 220.366 59.5007 220.359 60.0679C220.337 61.217 220.231 62.3631 220.042 63.4968C219.869 64.5718 219.531 65.6138 219.04 66.5863C218.551 67.5343 217.915 68.3995 217.156 69.1499C216.398 69.9154 215.521 70.5541 214.56 71.0415C213.585 71.5336 212.542 71.8765 211.465 72.0586C210.318 72.2454 209.159 72.3463 207.997 72.3604C207.454 72.373 206.885 72.3802 206.333 72.3802L204.322 72.3839L15.667 72.3802Z" fill="white"/>
<path d="M46.3735 36.7963C46.3942 35.1905 46.822 33.6161 47.6168 32.2195C48.4117 30.8229 49.548 29.6495 50.9198 28.8085C50.0483 27.5673 48.8986 26.5459 47.562 25.8254C46.2254 25.1048 44.7387 24.7049 43.22 24.6575C39.9804 24.3184 36.8398 26.5907 35.1889 26.5907C33.5061 26.5907 30.9644 24.6912 28.2273 24.7474C26.4569 24.8044 24.7316 25.3178 23.2193 26.2375C21.707 27.1572 20.4595 28.4518 19.5981 29.9953C15.8671 36.437 18.6501 45.9041 22.2242 51.1112C24.0124 53.6609 26.1022 56.509 28.8368 56.408C31.5127 56.2973 32.5121 54.7064 35.7422 54.7064C38.9423 54.7064 39.8799 56.408 42.67 56.3438C45.5414 56.2973 47.3505 53.7827 49.076 51.2089C50.3608 49.3921 51.3494 47.3842 52.0053 45.2595C50.3371 44.5559 48.9135 43.3782 47.912 41.8732C46.9105 40.3682 46.3754 38.6025 46.3735 36.7963Z" fill="black"/>
<path d="M41.1036 21.2334C42.6692 19.3592 43.4406 16.9502 43.2538 14.5181C40.8619 14.7686 38.6525 15.9086 37.0657 17.7108C36.2899 18.5913 35.6957 19.6156 35.3171 20.7252C34.9385 21.8348 34.7829 23.0079 34.8592 24.1775C36.0556 24.1898 37.2392 23.9312 38.3208 23.4212C39.4024 22.9113 40.3539 22.1632 41.1036 21.2334Z" fill="black"/>
<path d="M78.4778 50.2131H69.6964L67.5876 56.4225H63.8682L72.1857 33.4492H76.0501L84.3677 56.4225H80.5848L78.4778 50.2131ZM70.6059 47.3478H77.5666L74.1352 37.2703H74.0391L70.6059 47.3478Z" fill="black"/>
<path d="M102.331 48.0461C102.331 53.2511 99.5369 56.5951 95.3211 56.5951C94.2531 56.6508 93.191 56.4055 92.2564 55.8873C91.3217 55.369 90.5523 54.5988 90.0363 53.6647H89.9565V61.9608H86.5088V39.6705H89.846V42.4564H89.9094C90.4492 41.5268 91.2316 40.7606 92.1733 40.2391C93.1151 39.7177 94.181 39.4607 95.2576 39.4953C99.5206 39.4953 102.331 42.8556 102.331 48.0461ZM98.7869 48.0461C98.7869 44.6551 97.0295 42.4257 94.3482 42.4257C91.7139 42.4257 89.9421 44.702 89.9421 48.0461C89.9421 51.4209 91.7139 53.681 94.3482 53.681C97.0295 53.681 98.7868 51.4679 98.7868 48.0461H98.7869Z" fill="black"/>
<path d="M120.818 48.0461C120.818 53.2511 118.024 56.5951 113.808 56.5951C112.74 56.6508 111.678 56.4055 110.743 55.8873C109.809 55.369 109.039 54.5988 108.523 53.6647H108.443V61.9608H104.996V39.6705H108.333V42.4564H108.396C108.936 41.5268 109.719 40.7606 110.66 40.2391C111.602 39.7177 112.668 39.4607 113.745 39.4953C118.008 39.4953 120.818 42.8556 120.818 48.0461ZM117.274 48.0461C117.274 44.6551 115.516 42.4257 112.835 42.4257C110.201 42.4257 108.429 44.702 108.429 48.0461C108.429 51.4209 110.201 53.681 112.835 53.681C115.516 53.681 117.274 51.4679 117.274 48.0461Z" fill="black"/>
<path d="M133.035 50.0204C133.29 52.2985 135.509 53.7944 138.542 53.7944C141.448 53.7944 143.539 52.2985 143.539 50.2443C143.539 48.4611 142.278 47.3935 139.292 46.6617L136.307 45.9445C132.076 44.9256 130.112 42.9527 130.112 39.7513C130.112 35.7875 133.576 33.0649 138.493 33.0649C143.363 33.0649 146.7 35.7875 146.813 39.7513H143.332C143.124 37.4587 141.224 36.0748 138.446 36.0748C135.669 36.0748 133.768 37.475 133.768 39.5129C133.768 41.137 134.982 42.0927 137.952 42.8244L140.49 43.4458C145.217 44.5605 147.179 46.454 147.179 49.8143C147.179 54.1122 143.747 56.8041 138.287 56.8041C133.178 56.8041 129.728 54.1755 129.505 50.0202L133.035 50.0204Z" fill="black"/>
<path d="M154.623 35.7095V39.6732H157.817V42.3959H154.623V51.6296C154.623 53.0641 155.263 53.7325 156.667 53.7325C157.046 53.7259 157.425 53.6994 157.801 53.653V56.3593C157.17 56.4769 156.528 56.5302 155.886 56.5183C152.486 56.5183 151.159 55.2446 151.159 51.9963V42.3959H148.717V39.6732H151.159V35.7095H154.623Z" fill="black"/>
<path d="M159.665 48.0488C159.665 42.7789 162.777 39.4673 167.631 39.4673C172.501 39.4673 175.599 42.7788 175.599 48.0488C175.599 53.3333 172.517 56.6304 167.631 56.6304C162.746 56.6304 159.665 53.3332 159.665 48.0488ZM172.086 48.0488C172.086 44.4337 170.424 42.3001 167.631 42.3001C164.837 42.3001 163.176 44.45 163.176 48.0488C163.176 51.6784 164.837 53.7958 167.631 53.7958C170.424 53.7958 172.086 51.6784 172.086 48.0488H172.086Z" fill="black"/>
<path d="M178.441 39.6733H181.73V42.5241H181.81C182.032 41.6338 182.555 40.8469 183.291 40.2958C184.027 39.7447 184.93 39.463 185.85 39.498C186.247 39.4966 186.643 39.5397 187.031 39.6263V42.8421C186.529 42.6893 186.006 42.6191 185.482 42.6344C184.981 42.6141 184.482 42.7022 184.018 42.8925C183.555 43.0829 183.138 43.371 182.797 43.7371C182.455 44.1032 182.197 44.5386 182.041 45.0134C181.884 45.4882 181.832 45.9913 181.889 46.4879V56.4226H178.441L178.441 39.6733Z" fill="black"/>
<path d="M202.927 51.5031C202.463 54.5437 199.493 56.6304 195.694 56.6304C190.808 56.6304 187.775 53.3658 187.775 48.1283C187.775 42.8746 190.824 39.4673 195.549 39.4673C200.196 39.4673 203.119 42.6506 203.119 47.729V48.907H191.256V49.1147C191.201 49.7312 191.278 50.3521 191.483 50.9364C191.687 51.5207 192.014 52.055 192.441 52.5037C192.868 52.9524 193.387 53.3053 193.961 53.539C194.536 53.7727 195.154 53.8817 195.774 53.859C196.589 53.9351 197.406 53.7469 198.105 53.3225C198.804 52.898 199.347 52.2599 199.653 51.5031L202.927 51.5031ZM191.272 46.5041H199.669C199.7 45.9499 199.616 45.3952 199.422 44.875C199.227 44.3548 198.928 43.8802 198.541 43.481C198.154 43.0818 197.688 42.7667 197.174 42.5554C196.659 42.3441 196.106 42.2412 195.549 42.2531C194.988 42.2498 194.431 42.3574 193.912 42.5696C193.392 42.7819 192.92 43.0947 192.522 43.4899C192.125 43.8851 191.809 44.355 191.595 44.8723C191.38 45.3897 191.27 45.9443 191.272 46.5042V46.5041Z" fill="black"/>
<path d="M70.1754 16.1541C70.8982 16.1024 71.6235 16.2113 72.299 16.4729C72.9745 16.7346 73.5834 17.1425 74.0817 17.6672C74.5799 18.1919 74.9552 18.8203 75.1804 19.5072C75.4057 20.194 75.4752 20.9222 75.3841 21.6391C75.3841 25.1656 73.4727 27.1928 70.1754 27.1928H66.177V16.1541H70.1754ZM67.8963 25.6317H69.9834C70.4999 25.6625 71.0167 25.578 71.4964 25.3845C71.976 25.1909 72.4063 24.8932 72.756 24.5129C73.1057 24.1326 73.366 23.6793 73.5178 23.1861C73.6697 22.6928 73.7094 22.172 73.634 21.6616C73.7039 21.1531 73.6602 20.6356 73.506 20.1459C73.3518 19.6563 73.0909 19.2067 72.742 18.8295C72.3931 18.4522 71.9649 18.1566 71.4879 17.9637C71.011 17.7709 70.4972 17.6856 69.9834 17.7141H67.8963V25.6317Z" fill="black"/>
<path d="M77.3261 23.022C77.2735 22.4746 77.3363 21.9222 77.5104 21.4004C77.6845 20.8786 77.9661 20.3988 78.337 19.9918C78.7079 19.5848 79.1601 19.2597 79.6644 19.0372C80.1687 18.8146 80.7141 18.6997 81.2656 18.6997C81.8171 18.6997 82.3625 18.8146 82.8669 19.0372C83.3712 19.2597 83.8233 19.5848 84.1943 19.9918C84.5652 20.3988 84.8467 20.8786 85.0208 21.4004C85.1949 21.9222 85.2577 22.4746 85.2052 23.022C85.2587 23.57 85.1967 24.1231 85.023 24.6458C84.8494 25.1685 84.568 25.6491 84.197 26.0569C83.826 26.4647 83.3735 26.7905 82.8687 27.0135C82.3638 27.2365 81.8178 27.3517 81.2656 27.3517C80.7135 27.3517 80.1674 27.2365 79.6626 27.0135C79.1577 26.7905 78.7053 26.4647 78.3343 26.0569C77.9632 25.6491 77.6819 25.1685 77.5082 24.6458C77.3346 24.1231 77.2725 23.57 77.3261 23.022ZM83.5094 23.022C83.5094 21.2163 82.696 20.1603 81.2683 20.1603C79.8353 20.1603 79.0291 21.2163 79.0291 23.022C79.0291 24.8422 79.8353 25.8901 81.2683 25.8901C82.696 25.89 83.5094 24.835 83.5094 23.022H83.5094Z" fill="black"/>
<path d="M95.6792 27.1932H93.9689L92.2424 21.0579H92.1119L90.3926 27.1932H88.6987L86.396 18.8628H88.0682L89.5647 25.2194H89.6879L91.4054 18.8628H92.987L94.7045 25.2194H94.8349L96.3241 18.8628H97.9728L95.6792 27.1932Z" fill="black"/>
<path d="M99.9089 18.8629H101.496V20.1862H101.619C101.828 19.7109 102.181 19.3125 102.627 19.0464C103.074 18.7804 103.593 18.66 104.112 18.702C104.519 18.6716 104.927 18.7327 105.306 18.8809C105.686 19.029 106.027 19.2605 106.305 19.558C106.582 19.8556 106.789 20.2117 106.91 20.5998C107.031 20.988 107.063 21.3983 107.004 21.8004V27.1932H105.355V22.2133C105.355 20.8746 104.772 20.2088 103.552 20.2088C103.276 20.196 103.001 20.2428 102.745 20.3461C102.489 20.4494 102.258 20.6067 102.068 20.8072C101.879 21.0077 101.735 21.2467 101.647 21.5078C101.559 21.7689 101.528 22.0459 101.558 22.3199V27.1933H99.9089L99.9089 18.8629Z" fill="black"/>
<path d="M109.631 15.6094H111.28V27.1917H109.631V15.6094Z" fill="black"/>
<path d="M113.571 23.0222C113.519 22.4747 113.581 21.9223 113.756 21.4004C113.93 20.8786 114.211 20.3988 114.582 19.9918C114.953 19.5848 115.405 19.2597 115.91 19.0372C116.414 18.8146 116.96 18.6997 117.511 18.6997C118.063 18.6997 118.608 18.8146 119.112 19.0372C119.617 19.2597 120.069 19.5848 120.44 19.9918C120.811 20.3988 121.092 20.8786 121.267 21.4004C121.441 21.9223 121.504 22.4747 121.451 23.0222C121.505 23.5702 121.442 24.1233 121.269 24.646C121.095 25.1687 120.814 25.6493 120.443 26.0571C120.072 26.4648 119.619 26.7907 119.114 27.0136C118.609 27.2366 118.063 27.3518 117.511 27.3518C116.959 27.3518 116.413 27.2366 115.908 27.0136C115.403 26.7907 114.951 26.4648 114.58 26.0571C114.209 25.6493 113.927 25.1687 113.753 24.646C113.58 24.1233 113.518 23.5702 113.571 23.0222ZM119.754 23.0222C119.754 21.2164 118.941 20.1605 117.513 20.1605C116.08 20.1605 115.274 21.2164 115.274 23.0222C115.274 24.8424 116.08 25.8902 117.513 25.8902C118.941 25.8902 119.754 24.8351 119.754 23.0222H119.754Z" fill="black"/>
<path d="M123.187 24.835C123.187 23.3355 124.307 22.4711 126.294 22.3482L128.557 22.2181V21.4991C128.557 20.6192 127.973 20.1224 126.847 20.1224C125.926 20.1224 125.288 20.4594 125.105 21.0483H123.509C123.678 19.6175 125.028 18.6997 126.923 18.6997C129.017 18.6997 130.198 19.7394 130.198 21.4991V27.1909H128.611V26.0202H128.481C128.216 26.4401 127.844 26.7825 127.403 27.0123C126.962 27.2421 126.468 27.3511 125.971 27.3282C125.621 27.3645 125.266 27.3272 124.931 27.2186C124.596 27.11 124.287 26.9326 124.024 26.6977C123.762 26.4628 123.552 26.1757 123.408 25.8549C123.263 25.534 123.188 25.1866 123.187 24.835ZM128.557 24.1232V23.4268L126.517 23.5568C125.366 23.6336 124.845 24.0239 124.845 24.7583C124.845 25.508 125.497 25.9443 126.394 25.9443C126.656 25.9708 126.922 25.9444 127.174 25.8665C127.426 25.7886 127.661 25.661 127.862 25.491C128.064 25.3211 128.23 25.1125 128.349 24.8775C128.468 24.6425 128.539 24.386 128.557 24.1232Z" fill="black"/>
<path d="M132.365 23.023C132.365 20.3907 133.722 18.7231 135.833 18.7231C136.355 18.6992 136.873 18.8239 137.327 19.0827C137.78 19.3415 138.151 19.7237 138.395 20.1846H138.518V15.6094H140.167V27.1917H138.587V25.8756H138.456C138.194 26.3335 137.81 26.7109 137.348 26.9671C136.886 27.2233 136.362 27.3485 135.833 27.329C133.708 27.3291 132.365 25.6616 132.365 23.023ZM134.068 23.023C134.068 24.7899 134.904 25.8531 136.3 25.8531C137.69 25.8531 138.549 24.7745 138.549 23.0302C138.549 21.294 137.681 20.2001 136.3 20.2001C134.913 20.2001 134.068 21.2705 134.068 23.023H134.068Z" fill="black"/>
<path d="M146.988 23.022C146.935 22.4746 146.998 21.9222 147.172 21.4004C147.346 20.8786 147.628 20.3988 147.999 19.9918C148.37 19.5848 148.822 19.2597 149.326 19.0372C149.83 18.8146 150.376 18.6997 150.927 18.6997C151.479 18.6997 152.024 18.8146 152.529 19.0372C153.033 19.2597 153.485 19.5848 153.856 19.9918C154.227 20.3988 154.508 20.8786 154.683 21.4004C154.857 21.9222 154.919 22.4746 154.867 23.022C154.92 23.57 154.858 24.1231 154.685 24.6458C154.511 25.1685 154.23 25.6491 153.859 26.0569C153.488 26.4647 153.035 26.7905 152.53 27.0135C152.026 27.2365 151.48 27.3517 150.927 27.3517C150.375 27.3517 149.829 27.2365 149.324 27.0135C148.819 26.7905 148.367 26.4647 147.996 26.0569C147.625 25.6491 147.344 25.1685 147.17 24.6458C146.996 24.1231 146.934 23.57 146.988 23.022ZM153.171 23.022C153.171 21.2163 152.358 20.1603 150.93 20.1603C149.497 20.1603 148.691 21.2163 148.691 23.022C148.691 24.8422 149.497 25.8901 150.93 25.8901C152.358 25.89 153.171 24.835 153.171 23.022Z" fill="black"/>
<path d="M157.079 18.8629H158.666V20.1862H158.789C158.998 19.7109 159.35 19.3125 159.797 19.0464C160.244 18.7804 160.763 18.66 161.282 18.702C161.688 18.6716 162.096 18.7327 162.476 18.8809C162.856 19.029 163.197 19.2605 163.475 19.558C163.752 19.8556 163.959 20.2117 164.08 20.5998C164.201 20.988 164.233 21.3983 164.173 21.8004V27.1932H162.525V22.2133C162.525 20.8746 161.941 20.2088 160.722 20.2088C160.446 20.196 160.171 20.2428 159.914 20.3461C159.658 20.4494 159.428 20.6067 159.238 20.8072C159.049 21.0077 158.905 21.2467 158.817 21.5078C158.729 21.7689 158.698 22.0459 158.727 22.3199V27.1933H157.079V18.8629Z" fill="black"/>
<path d="M173.489 16.7871V18.8991H175.299V20.2839H173.489V24.5674C173.489 25.44 173.85 25.8221 174.67 25.8221C174.88 25.8214 175.09 25.8088 175.299 25.7842V27.1536C175.003 27.2064 174.703 27.2345 174.402 27.2376C172.569 27.2376 171.839 26.5944 171.839 24.9883V20.2838H170.512V18.899H171.839V16.7871H173.489Z" fill="black"/>
<path d="M177.551 15.6094H179.185V20.2001H179.315C179.534 19.7203 179.897 19.3196 180.352 19.0526C180.808 18.7855 181.335 18.6651 181.862 18.7078C182.267 18.6858 182.671 18.7532 183.046 18.9049C183.421 19.0567 183.759 19.2892 184.033 19.5858C184.308 19.8825 184.514 20.2359 184.636 20.6209C184.758 21.006 184.793 21.4132 184.739 21.8134V27.1918H183.089V22.219C183.089 20.8884 182.468 20.2145 181.303 20.2145C181.019 20.1913 180.734 20.2302 180.468 20.3283C180.201 20.4265 179.959 20.5815 179.759 20.7827C179.558 20.9839 179.404 21.2263 179.308 21.4929C179.211 21.7596 179.174 22.044 179.199 22.3264V27.1917H177.551L177.551 15.6094Z" fill="black"/>
<path d="M194.353 24.9418C194.129 25.7031 193.643 26.3617 192.982 26.8023C192.32 27.2429 191.524 27.4374 190.733 27.3518C190.182 27.3663 189.636 27.2612 189.13 27.0438C188.624 26.8263 188.172 26.5018 187.805 26.0927C187.438 25.6836 187.165 25.1997 187.004 24.6747C186.843 24.1496 186.799 23.5959 186.874 23.052C186.801 22.5065 186.846 21.9516 187.006 21.425C187.167 20.8983 187.439 20.4122 187.804 19.9995C188.169 19.5869 188.619 19.2572 189.123 19.033C189.627 18.8088 190.174 18.6952 190.726 18.6998C193.05 18.6998 194.452 20.2834 194.452 22.8993V23.473H188.553V23.5651C188.528 23.8708 188.566 24.1786 188.666 24.4685C188.767 24.7585 188.927 25.0244 189.136 25.2491C189.346 25.4738 189.6 25.6523 189.883 25.7733C190.166 25.8943 190.47 25.955 190.778 25.9516C191.172 25.9989 191.572 25.928 191.926 25.7482C192.28 25.5684 192.572 25.2876 192.766 24.9417L194.353 24.9418ZM188.553 22.2571H192.773C192.794 21.9775 192.755 21.6967 192.661 21.4327C192.566 21.1686 192.418 20.9273 192.224 20.724C192.03 20.5208 191.796 20.3602 191.536 20.2526C191.277 20.1449 190.998 20.0927 190.716 20.0991C190.431 20.0955 190.148 20.1489 189.884 20.2561C189.62 20.3633 189.38 20.5221 189.179 20.7233C188.977 20.9244 188.818 21.1637 188.71 21.4271C188.603 21.6906 188.55 21.9728 188.553 22.2571H188.553Z" fill="black"/>
</g>
<defs>
<clipPath id="clip0">
<rect width="222" height="74" fill="white"/>
</clipPath>
</defs>
</svg>
