<svg width="241" height="74" viewBox="0 0 241 74" fill="none" xmlns="http://www.w3.org/2000/svg">
<g clip-path="url(#clip0)">
<path d="M221.808 0.0002405H19.2026C18.464 0.0002405 17.7344 0.0002405 16.9978 0.0039405C16.3812 0.0076405 15.7696 0.018389 15.1471 0.0274355C13.7947 0.0420538 12.4455 0.151342 11.1113 0.354349C9.77889 0.561776 8.48823 0.952835 7.28296 1.5143C6.07917 2.08051 4.97923 2.81625 4.02305 3.69482C3.06185 4.57092 2.26061 5.58357 1.65015 6.69384C1.038 7.80189 0.613537 8.98928 0.391415 10.215C0.167182 11.4391 0.0465195 12.6774 0.0305117 13.9187C0.011822 14.4859 0.00984832 15.055 0 15.6223V58.3836C0.00984832 58.9581 0.011822 59.5146 0.0305117 60.0892C0.0465244 61.3304 0.167187 62.5686 0.391415 63.7927C0.612924 65.0191 1.03741 66.2072 1.65015 67.3156C2.26033 68.4223 3.06168 69.4309 4.02305 70.3021C4.97561 71.1846 6.07626 71.9208 7.28296 72.4827C8.48822 73.0456 9.77874 73.439 11.1113 73.6497C12.4458 73.851 13.7948 73.9604 15.1471 73.9767C15.7696 73.9893 16.3812 73.9965 16.9978 73.9965C17.7344 74.0002 18.4641 74.0002 19.2026 74.0002H221.808C222.532 74.0002 223.268 74.0002 223.991 73.9965C224.605 73.9965 225.234 73.9893 225.848 73.9767C227.198 73.9612 228.544 73.8519 229.876 73.6497C231.213 73.4376 232.508 73.0443 233.719 72.4827C234.925 71.9205 236.024 71.1843 236.976 70.3021C237.935 69.4274 238.738 68.4196 239.356 67.3156C239.964 66.2064 240.384 65.0184 240.603 63.7927C240.827 62.5684 240.952 61.3305 240.976 60.0892C240.984 59.5146 240.984 58.9581 240.984 58.3836C241 57.7115 241 57.0431 241 56.3601V17.6421C241 16.9646 241 16.2925 240.984 15.6223C240.984 15.055 240.984 14.4859 240.976 13.9186C240.952 12.6772 240.827 11.4392 240.603 10.2149C240.384 8.98991 239.963 7.80262 239.356 6.69376C238.113 4.46835 236.141 2.65689 233.719 1.51413C232.508 0.95404 231.213 0.563085 229.876 0.354182C228.545 0.150281 227.198 0.0409549 225.848 0.0271765C225.234 0.0181485 224.605 0.0073075 223.991 0.0037C223.268 0 222.532 0 221.808 0V0.0002405Z" fill="black"/>
<path d="M17.0079 72.3802C16.3943 72.3802 15.7955 72.373 15.1867 72.3604C13.9255 72.3453 12.6672 72.2444 11.4223 72.0586C10.2614 71.875 9.13682 71.5334 8.08564 71.045C7.0441 70.5607 6.09413 69.9257 5.27212 69.1643C4.43822 68.4119 3.74395 67.5392 3.21684 66.5808C2.68392 65.6162 2.31511 64.5822 2.12326 63.515C1.91607 62.3682 1.80397 61.2086 1.78793 60.0462C1.77516 59.6561 1.75845 58.357 1.75845 58.357V15.621C1.75845 15.621 1.77625 14.3418 1.78803 13.9661C1.80339 12.8055 1.91484 11.6477 2.1214 10.5027C2.31361 9.43254 2.68271 8.39561 3.21592 7.42784C3.74109 6.47012 4.4315 5.59677 5.26038 4.84163C6.08833 4.07933 7.04134 3.44104 8.08465 2.95006C9.13342 2.4633 10.2559 2.12408 11.4144 1.94378C12.6635 1.75612 13.9261 1.65467 15.1916 1.64026L17.0089 1.61768H223.982L225.821 1.64117C227.075 1.65486 228.326 1.75541 229.564 1.94196C230.734 2.12453 231.868 2.46611 232.929 2.95548C235.019 3.94495 236.72 5.51038 237.792 7.43236C238.317 8.39344 238.681 9.42191 238.87 10.4829C239.079 11.6373 239.196 12.8041 239.22 13.9742C239.226 14.4981 239.226 15.0609 239.226 15.621C239.242 16.3147 239.242 16.975 239.242 17.6408V56.3588C239.242 57.0309 239.242 57.6867 239.226 58.3479C239.226 58.9495 239.226 59.5007 239.218 60.0679C239.195 61.217 239.08 62.3631 238.874 63.4968C238.686 64.5718 238.319 65.6138 237.787 66.5863C237.256 67.5343 236.565 68.3995 235.741 69.1499C234.918 69.9154 233.967 70.5541 232.923 71.0415C231.865 71.5336 230.733 71.8765 229.564 72.0586C228.319 72.2454 227.06 72.3463 225.799 72.3604C225.209 72.373 224.591 72.3802 223.992 72.3802L221.809 72.3839L17.0079 72.3802Z" fill="white"/>
<path d="M74 19.2042C74 16.0013 76.5622 13.9307 79.7502 13.9307C81.8804 13.9307 83.2807 14.8841 84.1597 16.046L82.5955 16.8802C81.9996 16.1205 80.9717 15.5246 79.7502 15.5246C77.5901 15.5246 75.9664 17.059 75.9664 19.2042C75.9813 21.3344 77.5901 22.8837 79.7502 22.8837C80.8674 22.8837 81.8506 22.407 82.3422 21.9601V20.3959H79.0649V18.8168H84.249V22.6156C83.1765 23.7328 81.6421 24.4777 79.7502 24.4777C76.5622 24.4926 74 22.407 74 19.2042Z" fill="black"/>
<path d="M86.7373 24.3433V14.0942H94.3497V15.6733H88.6888V18.3101H94.2305V19.904H88.6888V22.7642H94.3497V24.3433H86.7373Z" fill="black"/>
<path d="M99.5187 24.3433V15.6733H96.2116V14.0942H104.747V15.6733H101.44V24.3433H99.5187Z" fill="black"/>
<path d="M111.585 14.0942H113.447V24.3433H111.585V14.0942Z" fill="black"/>
<path d="M118.78 24.3433V15.6733H115.473V14.0942H124.009V15.6733H120.702V24.3433H118.78Z" fill="black"/>
<path d="M130.385 19.2183C130.385 16.1794 132.724 13.9448 136.061 13.9448C139.368 13.9448 141.721 16.1794 141.721 19.2183C141.721 22.2573 139.353 24.4918 136.061 24.4918C132.724 24.4918 130.385 22.2573 130.385 19.2183ZM139.696 19.1289C139.696 17.0434 138.265 15.4792 136.046 15.4792C133.811 15.4792 132.396 17.0434 132.396 19.1289C132.396 21.1996 133.811 22.7787 136.046 22.7787C138.265 22.7787 139.696 21.2145 139.696 19.1289Z" fill="black"/>
<path d="M151.509 24.3433L145.803 17.014V24.3433H143.882V14.0942H145.848L151.434 21.2001V14.0942H153.356V24.3433H151.509Z" fill="black"/>
<g clip-path="url(#clip1)">
<path fill-rule="evenodd" clip-rule="evenodd" d="M13.003 14.1711C12.4699 14.7475 12.1634 15.6345 12.1634 16.7872V57.7866C12.1634 58.9393 12.4699 59.8263 13.023 60.3826L13.1675 60.5054L36.0091 37.5325V37.0163L13.1475 14.0483L13.003 14.1711Z" fill="url(#paint0_linear)"/>
<path fill-rule="evenodd" clip-rule="evenodd" d="M43.6081 45.2196L35.9892 37.5544V37.0182L43.6106 29.353L43.775 29.4558L52.7891 34.6076C55.3703 36.071 55.3703 38.4816 52.7891 39.965L43.775 45.1169C43.7725 45.1169 43.6081 45.2196 43.6081 45.2196Z" fill="url(#paint1_linear)"/>
<path fill-rule="evenodd" clip-rule="evenodd" d="M43.7727 45.1177L35.9894 37.2871L13.0032 60.4054C13.8428 61.3125 15.2555 61.4152 16.8351 60.5282L43.7727 45.1177Z" fill="url(#paint2_linear)"/>
<path fill-rule="evenodd" clip-rule="evenodd" d="M43.7727 29.4588L16.8351 14.0683C15.258 13.1612 13.8428 13.284 13.0032 14.1911L35.9869 37.2868L43.7727 29.4588Z" fill="url(#paint3_linear)"/>
<path opacity="0.2" fill-rule="evenodd" clip-rule="evenodd" d="M43.608 44.9517L16.8548 60.2394C15.3599 61.1039 14.027 61.0438 13.1674 60.2594L13.0229 60.4048L13.1674 60.5276C14.027 61.3094 15.3599 61.372 16.8548 60.5075L43.7924 45.117L43.608 44.9517Z" fill="black"/>
<path opacity="0.12" fill-rule="evenodd" clip-rule="evenodd" d="M52.787 39.6977L43.5885 44.9523L43.7529 45.1177L52.767 39.9658C54.0576 39.2241 54.6929 38.2568 54.6929 37.2871C54.6107 38.1742 53.9554 39.0186 52.787 39.6977Z" fill="black"/>
<path opacity="0.25" fill-rule="evenodd" clip-rule="evenodd" d="M16.8353 14.3373L52.787 34.8796C53.9555 35.5386 54.6108 36.4031 54.7129 37.2902C54.7129 36.323 54.0776 35.3532 52.787 34.6115L16.8353 14.0692C14.2541 12.5858 12.1638 13.8211 12.1638 16.7879V17.0561C12.1638 14.0892 14.2541 12.8739 16.8353 14.3373Z" fill="white"/>
<path fill-rule="evenodd" clip-rule="evenodd" d="M72.9913 43.3407C72.9913 36.7731 78.48 31.4258 85.0101 31.4258C88.6202 31.4258 91.1889 32.8516 93.1272 34.7083L90.8451 37.0036C89.4598 35.6956 87.5813 34.6808 85.0076 34.6808C80.2389 34.6808 76.5117 38.5422 76.5117 43.3382C76.5117 48.1343 80.2389 52.0007 85.0051 52.0007C88.097 52.0007 89.856 50.7528 90.9846 49.6152C91.9089 48.6856 92.5143 47.35 92.7485 45.5183H85.0101V42.2708H95.9027C96.0173 42.8521 96.0771 43.5487 96.0771 44.303C96.0771 46.7411 95.4119 49.7655 93.2717 51.918C91.1889 54.098 88.533 55.2607 85.0076 55.2607C78.475 55.2607 72.9863 49.9184 72.9863 43.3458L72.9913 43.3407ZM104.882 39.9128C100.664 39.9128 97.2207 43.1403 97.2207 47.583C97.2207 52.0032 100.661 55.2532 104.882 55.2532C109.102 55.2532 112.538 51.9982 112.538 47.5805C112.538 43.1378 109.1 39.9103 104.882 39.9128ZM104.882 52.2362C102.572 52.2362 100.577 50.3193 100.577 47.5855C100.577 44.8242 102.57 42.9348 104.882 42.9348C107.192 42.9348 109.185 44.8217 109.185 47.5855C109.185 50.3168 107.194 52.2362 104.882 52.2362ZM121.587 39.9128C117.369 39.9128 113.931 43.1403 113.931 47.583C113.931 52.0032 117.369 55.2532 121.587 55.2532C125.805 55.2532 129.243 51.9982 129.243 47.5805C129.243 43.1378 125.808 39.9103 121.587 39.9128ZM121.587 52.2362C119.278 52.2362 117.282 50.3193 117.282 47.5855C117.282 44.8242 119.275 42.9348 121.587 42.9348C123.897 42.9348 125.892 44.8217 125.892 47.5855C125.892 50.3168 123.897 52.2362 121.587 52.2362ZM142.089 40.3789V41.6268H141.975C141.225 40.7222 139.78 39.9103 137.961 39.9103C134.147 39.9103 130.646 43.2831 130.646 47.6156C130.646 51.913 134.144 55.2582 137.961 55.2582C139.78 55.2582 141.225 54.4463 141.975 53.5167H142.089V54.6192C142.089 57.5535 140.53 59.1246 138.016 59.1246C135.963 59.1246 134.692 57.6412 134.171 56.3958L131.251 57.6161C132.089 59.6483 134.316 62.1491 138.013 62.1491C141.94 62.1491 145.263 59.8212 145.263 54.1557V40.3764L142.089 40.3789ZM138.247 52.2362C135.938 52.2362 133.997 50.2867 133.997 47.6156C133.997 44.9144 135.935 42.9373 138.247 42.9373C140.53 42.9373 142.321 44.9119 142.321 47.6156C142.324 50.2867 140.532 52.2362 138.247 52.2362ZM147.578 32.2402H150.931V54.7921H147.578V32.2402ZM160.122 52.2362C158.418 52.2362 157.202 51.4494 156.428 49.9134L166.628 45.6661L166.276 44.7941C165.644 43.0826 163.705 39.9128 159.746 39.9128C155.817 39.9128 152.551 43.0225 152.551 47.5855C152.551 51.8829 155.787 55.2557 160.122 55.2557C163.62 55.2557 165.644 53.1082 166.481 51.8554L163.88 50.1138C163.01 51.3943 161.824 52.2387 160.122 52.2362ZM159.861 42.8772C161.189 42.8772 162.315 43.5462 162.691 44.5034L155.87 47.3525C155.785 44.3882 158.154 42.8772 159.861 42.8772ZM181.342 32.2402H173.325V54.7921H176.671V46.2499H181.345C185.054 46.2499 188.702 43.5487 188.702 39.2438C188.702 34.9464 185.057 32.2427 181.35 32.2427L181.342 32.2402ZM181.429 43.1102H176.671V35.3774H181.429C183.931 35.3774 185.356 37.4647 185.356 39.2438C185.356 40.9928 183.931 43.1102 181.429 43.1102ZM193.892 54.7921V32.2402H190.546V54.7921H193.892ZM208.923 54.752V46.1071C208.923 42.1029 205.948 39.8702 202.108 39.8702C199.689 39.8702 197.18 40.9452 196.141 43.3232L199.111 44.5686C199.747 43.3232 200.928 42.9148 202.171 42.9148C203.9 42.9148 205.659 43.9597 205.686 45.8189V46.052C205.081 45.7037 203.785 45.18 202.196 45.18C198.994 45.18 195.735 46.9491 195.735 50.2567C195.735 53.2761 198.361 55.2181 201.304 55.2181C203.556 55.2181 204.794 54.2033 205.572 53.0155H205.686V54.757H208.92L208.923 54.752ZM201.71 52.2312C200.614 52.2312 199.084 51.68 199.084 50.3193C199.084 48.5778 200.99 47.9063 202.634 47.9063C204.107 47.9063 204.797 48.2245 205.694 48.6605C205.437 50.6852 203.735 52.2062 201.71 52.2312ZM220.69 40.3639L216.853 50.1389H216.738L212.757 40.3639H209.152L215.121 54.0304L211.716 61.6304H215.206L224.407 40.3639H220.69Z" fill="#1F1F1F"/>
</g>
</g>
<defs>
<linearGradient id="paint0_linear" x1="33.9581" y1="16.3464" x2="-2.65801" y2="26.0471" gradientUnits="userSpaceOnUse">
<stop stop-color="#00A0FF"/>
<stop offset="0.007" stop-color="#00A1FF"/>
<stop offset="0.26" stop-color="#00BEFF"/>
<stop offset="0.512" stop-color="#00D2FF"/>
<stop offset="0.76" stop-color="#00DFFF"/>
<stop offset="1" stop-color="#00E3FF"/>
</linearGradient>
<linearGradient id="paint1_linear" x1="56.1479" y1="37.2874" x2="11.5361" y2="37.2874" gradientUnits="userSpaceOnUse">
<stop stop-color="#FFE000"/>
<stop offset="0.409" stop-color="#FFBD00"/>
<stop offset="0.775" stop-color="#FFA500"/>
<stop offset="1" stop-color="#FF9C00"/>
</linearGradient>
<linearGradient id="paint2_linear" x1="39.5403" y1="41.547" x2="9.91753" y2="91.1192" gradientUnits="userSpaceOnUse">
<stop stop-color="#FF3A44"/>
<stop offset="1" stop-color="#C31162"/>
</linearGradient>
<linearGradient id="paint3_linear" x1="7.21701" y1="0.532619" x2="20.4327" y2="22.6725" gradientUnits="userSpaceOnUse">
<stop stop-color="#32A071"/>
<stop offset="0.069" stop-color="#2DA771"/>
<stop offset="0.476" stop-color="#15CF74"/>
<stop offset="0.801" stop-color="#06E775"/>
<stop offset="1" stop-color="#00F076"/>
</linearGradient>
<clipPath id="clip0">
<rect width="241" height="74" fill="white"/>
</clipPath>
<clipPath id="clip1">
<rect width="211.863" height="51.6986" fill="white" transform="translate(12.1644 12.1646)"/>
</clipPath>
</defs>
</svg>
